<svg width="16" height="15" viewBox="0 0 16 15" fill="none" xmlns="http://www.w3.org/2000/svg">
<path d="M7.8482 0C5.7926 0 5.53411 0.009375 4.72645 0.045C3.91879 0.0825 3.36868 0.208125 2.88673 0.39375C2.3812 0.582018 1.92331 0.877337 1.54505 1.25906C1.15976 1.63378 0.86153 2.0871 0.671113 2.5875C0.483637 3.06375 0.355813 3.60937 0.318886 4.40625C0.282906 5.20781 0.273437 5.46281 0.273437 7.50094C0.273437 9.53719 0.282906 9.79219 0.318886 10.5919C0.35676 11.3906 0.483637 11.9353 0.671113 12.4125C0.865216 12.9056 1.1237 13.3237 1.54505 13.7409C1.96545 14.1581 2.38774 14.415 2.88578 14.6062C3.36868 14.7919 3.91785 14.9184 4.72456 14.955C5.53317 14.9906 5.79071 15 7.8482 15C9.9057 15 10.1623 14.9906 10.9709 14.955C11.7767 14.9175 12.3287 14.7919 12.8106 14.6062C13.3158 14.4179 13.7734 14.1226 14.1514 13.7409C14.5727 13.3237 14.8312 12.9056 15.0253 12.4125C15.2118 11.9353 15.3396 11.3906 15.3775 10.5919C15.4135 9.79219 15.423 9.53719 15.423 7.5C15.423 5.46281 15.4135 5.20781 15.3775 4.40719C15.3396 3.60938 15.2118 3.06375 15.0253 2.5875C14.8349 2.08709 14.5367 1.63376 14.1514 1.25906C13.7732 0.877196 13.3153 0.581855 12.8097 0.39375C12.3268 0.208125 11.7757 0.0815625 10.97 0.045C10.1613 0.009375 9.90475 0 7.84631 0L7.84915 0L7.8482 0ZM7.16931 1.35188H7.84915C9.87161 1.35188 10.1112 1.35844 10.9094 1.395C11.6479 1.42781 12.0494 1.55062 12.3164 1.65281C12.6695 1.78875 12.9223 1.95187 13.1875 2.21438C13.4526 2.47688 13.6164 2.72625 13.7537 3.07687C13.8578 3.34031 13.9809 3.73781 14.0141 4.46906C14.051 5.25938 14.0586 5.49656 14.0586 7.49813C14.0586 9.49969 14.051 9.73781 14.0141 10.5281C13.9809 11.2594 13.8569 11.6559 13.7537 11.9203C13.6322 12.246 13.4384 12.5404 13.1865 12.7819C12.9214 13.0444 12.6695 13.2066 12.3154 13.3425C12.0503 13.4456 11.6488 13.5675 10.9094 13.6013C10.1112 13.6369 9.87161 13.6453 7.84915 13.6453C5.82669 13.6453 5.58619 13.6369 4.788 13.6013C4.04946 13.5675 3.64894 13.4456 3.38193 13.3425C3.0529 13.2224 2.75524 13.0309 2.51083 12.7819C2.25874 12.54 2.06461 12.2453 1.94273 11.9194C1.83952 11.6559 1.71548 11.2584 1.68234 10.5272C1.64636 9.73688 1.63879 9.49969 1.63879 7.49625C1.63879 5.49375 1.64636 5.2575 1.68234 4.46719C1.71643 3.73594 1.83952 3.33844 1.94367 3.07406C2.08097 2.72438 2.24572 2.47406 2.51083 2.21156C2.77595 1.94906 3.02781 1.78688 3.38193 1.65094C3.64894 1.54781 4.04946 1.42594 4.788 1.39219C5.48677 1.36031 5.75757 1.35094 7.16931 1.35V1.35188ZM11.8922 2.59687C11.7728 2.59687 11.6546 2.62015 11.5443 2.66538C11.4341 2.71061 11.3338 2.77691 11.2494 2.86048C11.165 2.94405 11.0981 3.04327 11.0524 3.15246C11.0067 3.26165 10.9832 3.37869 10.9832 3.49688C10.9832 3.61506 11.0067 3.7321 11.0524 3.84129C11.0981 3.95048 11.165 4.0497 11.2494 4.13327C11.3338 4.21684 11.4341 4.28314 11.5443 4.32837C11.6546 4.3736 11.7728 4.39687 11.8922 4.39687C12.1333 4.39687 12.3645 4.30205 12.5349 4.13327C12.7054 3.96449 12.8012 3.73557 12.8012 3.49688C12.8012 3.25818 12.7054 3.02926 12.5349 2.86048C12.3645 2.6917 12.1333 2.59687 11.8922 2.59687ZM7.84915 3.64875C7.33319 3.64078 6.82078 3.73452 6.34175 3.92451C5.86273 4.1145 5.42666 4.39694 5.05894 4.7554C4.69122 5.11385 4.39919 5.54116 4.19986 6.01243C4.00052 6.48371 3.89787 6.98953 3.89787 7.50047C3.89787 8.0114 4.00052 8.51723 4.19986 8.98851C4.39919 9.45978 4.69122 9.88708 5.05894 10.2455C5.42666 10.604 5.86273 10.8864 6.34175 11.0764C6.82078 11.2664 7.33319 11.3602 7.84915 11.3522C8.87036 11.3364 9.84435 10.9237 10.5609 10.203C11.2774 9.48243 11.679 8.51172 11.679 7.50047C11.679 6.48921 11.2774 5.51851 10.5609 4.79789C9.84435 4.07727 8.87036 3.66453 7.84915 3.64875ZM7.84915 4.99969C8.51888 4.99969 9.16119 5.26311 9.63476 5.73201C10.1083 6.20091 10.3744 6.83688 10.3744 7.5C10.3744 8.16312 10.1083 8.79909 9.63476 9.26799C9.16119 9.73689 8.51888 10.0003 7.84915 10.0003C7.17942 10.0003 6.53711 9.73689 6.06354 9.26799C5.58996 8.79909 5.32391 8.16312 5.32391 7.5C5.32391 6.83688 5.58996 6.20091 6.06354 5.73201C6.53711 5.26311 7.17942 4.99969 7.84915 4.99969Z" fill="#2A2A2A"/>
</svg>
