<svg width="16" height="15" viewBox="0 0 16 15" fill="none" xmlns="http://www.w3.org/2000/svg">
<path d="M4.11297 14.5297H0.97309L0.97309 5.14267H4.11297L4.11297 14.5297ZM2.54114 3.8622C1.53724 3.8622 0.722656 3.08991 0.722656 2.15793C0.722656 1.71019 0.914246 1.28079 1.25528 0.96419C1.59631 0.64759 2.05885 0.469727 2.54114 0.469727C3.02343 0.469727 3.48597 0.64759 3.827 0.96419C4.16803 1.28079 4.35962 1.71019 4.35962 2.15793C4.35962 3.08991 3.54504 3.8622 2.54114 3.8622ZM15.8644 14.5297H12.7316V9.96023C12.7316 8.87108 12.7078 7.47462 11.0992 7.47462C9.46673 7.47462 9.2163 8.65767 9.2163 9.88189V14.5297L6.07966 14.5297L6.07966 5.14267H9.09081V6.42313H9.13463C9.55382 5.68548 10.5777 4.90716 12.1052 4.90716C15.283 4.90716 15.8671 6.84995 15.8671 9.37322V14.5297H15.8644Z" fill="#2A2A2A"/>
</svg>
