<svg width="15" height="13" viewBox="0 0 15 13" fill="none" xmlns="http://www.w3.org/2000/svg">
<path d="M15.0005 1.95084C14.4549 2.18387 13.8612 2.35159 13.2496 2.41691C13.8845 2.04341 14.36 1.45334 14.5868 0.757418C13.991 1.10836 13.3383 1.35445 12.6576 1.48477C12.3731 1.18364 12.0291 0.94374 11.6468 0.780029C11.2646 0.616317 10.8524 0.5323 10.436 0.53321C8.75105 0.53321 7.39596 1.88552 7.39596 3.54501C7.39596 3.77804 7.42449 4.01108 7.47084 4.23529C4.94788 4.10465 2.69772 2.91123 1.20178 1.08402C0.929198 1.545 0.786358 2.06987 0.788116 2.60404C0.788116 3.64917 1.3248 4.57072 2.14321 5.1127C1.66091 5.09389 1.18991 4.96264 0.768504 4.7296V4.76668C0.768504 6.23021 1.81335 7.44305 3.20588 7.72198C2.94442 7.78923 2.67545 7.82363 2.40531 7.82438C2.20739 7.82438 2.02018 7.80496 1.83118 7.77848C2.21631 8.9719 3.33782 9.83872 4.6733 9.86696C3.62845 10.6773 2.31972 11.1539 0.898663 11.1539C0.643693 11.1539 0.408335 11.1451 0.164062 11.1169C1.51202 11.9731 3.11138 12.4674 4.83377 12.4674C10.4253 12.4674 13.4849 7.88087 13.4849 3.89986C13.4849 3.76922 13.4849 3.63858 13.476 3.50794C14.068 3.07894 14.5868 2.54755 15.0005 1.95084Z" fill="#2A2A2A"/>
</svg>
